<svg width="32" height="32" viewBox="0 0 32 32" fill="none" xmlns="http://www.w3.org/2000/svg">
<path d="M10.6048 31H16.6538C18.6882 31 20.5647 29.8286 21.5509 27.9336L26.9443 17.5726C27.0515 17.3667 27.0004 17.1138 26.8216 16.966L26.2671 16.5068C25.6268 15.9115 24.7686 15.6079 23.8967 15.668C23.0064 15.7333 22.1834 16.1659 21.6246 16.862L20.9897 17.6353L20.982 6.36916C20.981 4.9974 19.9123 3.88146 18.6135 3.88146C18.1039 3.88146 17.6661 4.05339 17.2341 4.34491V3.47733C17.2341 2.10484 16.2002 1 14.9008 1H14.8572C13.6764 1 12.6958 1.91652 12.5266 3.11492C12.1295 2.80073 11.6382 2.62905 11.1317 2.62736C9.83239 2.62712 8.77941 3.74113 8.77941 5.11386V7.61121C8.40914 7.31896 7.91206 7.17284 7.4022 7.17284H7.36074C6.06477 7.17284 5.00745 8.27382 5.00431 9.6427C4.99612 13.193 5.00118 19.4539 5.00648 25.055C5.00962 28.3399 7.52105 31 10.6048 31ZM5.99172 9.64511C5.99365 8.81925 6.60789 8.16049 7.36074 8.16049H7.4022C8.15698 8.16049 8.77941 8.80816 8.77941 9.63643V16.1302C8.77941 16.4029 9.00047 16.624 9.27312 16.624C9.54601 16.624 9.76682 16.4029 9.76682 16.1302V5.11386C9.76682 4.28583 10.3676 3.61188 11.1267 3.61188C11.8817 3.61188 12.4822 4.28583 12.4822 5.11386V16.1307C12.4822 16.4034 12.7033 16.6245 12.9759 16.6245C13.2488 16.6245 13.4696 16.4034 13.4696 16.1307V3.47806C13.4696 2.64979 14.1022 1.98765 14.8572 1.98765H14.9008C15.6556 1.98765 16.2698 2.65533 16.2698 3.48312V6.29876C16.2691 6.32359 16.2689 6.34746 16.2689 6.37278C16.2689 6.38363 16.2689 6.39376 16.2698 6.40437C16.2698 7.65582 16.2693 9.01119 16.2691 10.3019C16.2684 13.2955 16.2679 15.8804 16.2691 16.1326C16.2701 16.4053 16.4919 16.6257 16.7645 16.6248C17.0371 16.6238 17.2575 16.402 17.2565 16.1292C17.2556 15.8787 17.256 13.2943 17.2565 10.3019C17.2565 8.97936 17.257 7.58902 17.2572 6.31202C17.2859 5.51124 17.8886 4.8696 18.6258 4.8696C19.3798 4.8696 19.9941 5.54282 19.9945 6.37037L20.0035 19.0141C20.0037 19.2227 20.1346 19.4086 20.3308 19.4787C20.5271 19.5491 20.7462 19.4884 20.8785 19.3273L22.3879 17.4897C22.7752 17.0041 23.3466 16.7014 23.9659 16.6539C24.5717 16.6139 25.1669 16.8275 25.6087 17.2437C25.615 17.2495 25.6213 17.2551 25.6278 17.2604L25.8845 17.4733L20.6751 27.4776C19.8596 29.0447 18.3187 30.0123 16.6538 30.0123H10.6048C8.06489 30.0123 5.99654 27.7949 5.99389 25.0541C5.98859 19.4537 5.98353 13.1938 5.99172 9.64511Z" fill="#5B71DE" stroke="#5B71DE" stroke-width="1.5"/>
</svg>
