<?xml version="1.0"?>
<svg xmlns="http://www.w3.org/2000/svg" xmlns:xlink="http://www.w3.org/1999/xlink" xmlns:svgjs="http://svgjs.com/svgjs" version="1.1" width="512" height="512" x="0" y="0" viewBox="0 0 511.264 511.264" style="enable-background:new 0 0 512 512" xml:space="preserve" class=""><g><g xmlns="http://www.w3.org/2000/svg"><path d="m255.696 254.244c45.931 0 83.299-37.368 83.299-83.299s-37.368-83.299-83.299-83.299c-45.932 0-83.3 37.368-83.3 83.299s37.369 83.299 83.3 83.299zm0-136.598c29.389 0 53.299 23.91 53.299 53.299s-23.91 53.299-53.299 53.299c-29.39 0-53.3-23.91-53.3-53.299s23.911-53.299 53.3-53.299z" fill="#ffffff" data-original="#000000" style=""/><path d="m416.08 251.236c34.925 0 63.339-28.414 63.339-63.338s-28.414-63.338-63.339-63.338-63.338 28.414-63.338 63.338 28.413 63.338 63.338 63.338zm0-96.677c18.383 0 33.339 14.956 33.339 33.338s-14.956 33.338-33.339 33.338-33.338-14.956-33.338-33.338 14.955-33.338 33.338-33.338z" fill="#ffffff" data-original="#000000" style=""/><path d="m447.458 268.566h-62.755c-18.088 0-35.512 8.188-47.67 21.703-13.029-7.225-28.007-11.347-43.931-11.347h-74.812c-16.056 0-31.149 4.19-44.253 11.527-11.922-13.315-29.017-21.149-47.477-21.149h-62.754c-35.183 0-63.806 28.623-63.806 63.806v23.738c0 8.284 6.716 15 15 15h112.402v36.774c0 8.284 6.716 15 15 15h226.587c8.284 0 15-6.716 15-15v-37.508h112.274c8.284 0 15-6.716 15-15v-23.737c.001-35.184-28.622-63.807-63.805-63.807zm-417.458 64.54c0-18.641 15.165-33.806 33.806-33.806h62.755c9.196 0 17.744 3.682 23.988 9.987-8.344 9.329-14.792 20.384-18.738 32.557h-101.811zm323.989 60.511h-196.587v-23.808c0-33.573 27.314-60.887 60.888-60.887h74.812c33.573 0 60.888 27.314 60.888 60.887v23.808zm127.275-52.508h-101.922c-4.003-11.997-10.443-22.888-18.731-32.084 6.468-6.477 15.266-10.46 24.092-10.46h62.755c18.641 0 33.806 15.166 33.806 33.806z" fill="#ffffff" data-original="#000000" style=""/><path d="m94.806 251.236c34.925 0 63.338-28.414 63.338-63.338s-28.413-63.338-63.338-63.338-63.339 28.414-63.339 63.338 28.414 63.338 63.339 63.338zm0-96.677c18.383 0 33.338 14.956 33.338 33.338s-14.955 33.338-33.338 33.338-33.339-14.956-33.339-33.338 14.956-33.338 33.339-33.338z" fill="#ffffff" data-original="#000000" style=""/></g></g></svg>
